<?xml version="1.0" encoding="UTF-8" standalone="no"?> <svg  viewBox="0 0 512 512"  xmlns="http://www.w3.org/2000/svg"><path d="m488.5 465h-61v-44.5h2c4.140625 0 7.5-3.359375 7.5-7.5s-3.359375-7.5-7.5-7.5h-2v-5.667969c0-4.140625-3.359375-7.5-7.5-7.5s-7.5 3.359375-7.5 7.5v5.667969h-81.472656v-66h81.472656v28.167969c0 4.140625 3.359375 7.5 7.5 7.5s7.5-3.359375 7.5-7.5v-28.167969h2c4.140625 0 7.5-3.359375 7.5-7.5s-3.359375-7.5-7.5-7.5h-2v-106.914062c9.703125-2.074219 17-10.714844 17-21.023438v-18c0-5.238281-4.261719-9.5-9.5-9.5h-7.5v-27.882812c0-4.144532-3.359375-7.5-7.5-7.5h-6.5v-73.191407c0-4.140625-3.359375-7.5-7.5-7.5h-49.988281v-4.890625c0-14.113281-11.484375-25.597656-25.601563-25.597656h-16.160156c-2.066406 0-3.75-1.683594-3.75-3.75 0-10.339844-8.410156-18.75-18.75-18.75h-71.5c-10.339844 0-18.75 8.410156-18.75 18.75 0 2.066406-1.683594 3.75-3.75 3.75h-16.160156c-14.117188 0-25.601563 11.484375-25.601563 25.597656v4.890625h-49.988281c-4.140625 0-7.5 3.359375-7.5 7.5v15.011719c0 4.140625 3.359375 7.5 7.5 7.5s7.5-3.359375 7.5-7.5v-7.511719h285v65.691407h-285v-26.179688c0-4.140625-3.359375-7.5-7.5-7.5s-7.5 3.359375-7.5 7.5v26.179688h-6.5c-4.140625 0-7.5 3.355468-7.5 7.5v27.882812h-7.5c-5.238281 0-9.5 4.261719-9.5 9.5v18c0 10.308594 7.296875 18.949219 17 21.023438v106.914062h-2c-4.140625 0-7.5 3.359375-7.5 7.5s3.359375 7.5 7.5 7.5h2v66h-2c-4.140625 0-7.5 3.359375-7.5 7.5s3.359375 7.5 7.5 7.5h2v44.5h-61c-12.957031 0-23.5 10.542969-23.5 23.5s10.542969 23.5 23.5 23.5h465c12.957031 0 23.5-10.542969 23.5-23.5s-10.542969-23.5-23.5-23.5zm-317.511719-416.902344c0-5.84375 4.753907-10.597656 10.601563-10.597656h16.160156c10.339844 0 18.75-8.410156 18.75-18.75 0-2.066406 1.683594-3.75 3.75-3.75h71.5c2.066406 0 3.75 1.683594 3.75 3.75 0 10.339844 8.410156 18.75 18.75 18.75h16.160156c5.84375 0 10.601563 4.753906 10.601563 10.597656v4.890625h-170.023438zm241.511719 372.402344v44.5h-81.472656v-44.5zm-96.472656-15h-2.527344c-4.140625 0-7.5 3.359375-7.5 7.5s3.359375 7.5 7.5 7.5h2.527344v44.5h-120.054688v-44.5h2.527344c4.140625 0 7.5-3.359375 7.5-7.5s-3.359375-7.5-7.5-7.5h-2.527344v-66h2.527344c4.140625 0 7.5-3.359375 7.5-7.5s-3.359375-7.5-7.5-7.5h-1.460938c5.308594-27.644531 29.730469-48.601562 58.960938-48.601562s53.652344 20.957031 58.960938 48.601562h-1.460938c-4.140625 0-7.5 3.359375-7.5 7.5s3.359375 7.5 7.5 7.5h2.527344zm-216.527344-256.820312h313v20.382812h-313zm0 69.382812h188.167969c4.140625 0 7.5-3.359375 7.5-7.5s-3.359375-7.5-7.5-7.5h-198.667969c-3.585938 0-6.5-2.917969-6.5-6.5v-12.5h347v12.5c0 3.582031-2.914062 6.5-6.5 6.5h-102.667969c-4.140625 0-7.5 3.359375-7.5 7.5s3.359375 7.5 7.5 7.5h92.167969v106.4375h-82.320312c-5.472657-35.957031-36.652344-63.601562-74.179688-63.601562s-68.707031 27.644531-74.179688 63.601562h-82.320312zm0 121.4375h81.472656v66h-81.472656zm0 81h81.472656v44.5h-81.472656zm389 76.5h-465c-4.6875 0-8.5-3.8125-8.5-8.5s3.8125-8.5 8.5-8.5h465c4.6875 0 8.5 3.8125 8.5 8.5s-3.8125 8.5-8.5 8.5zm0 0"/><path d="m338 108.335938c4.140625 0 7.5-3.359376 7.5-7.5 0-4.144532-3.359375-7.5-7.5-7.5h-164c-4.140625 0-7.5 3.355468-7.5 7.5 0 4.140624 3.359375 7.5 7.5 7.5zm0 0"/><path d="m141 240.5c-13.785156 0-25 11.214844-25 25s11.214844 25 25 25 25-11.214844 25-25-11.214844-25-25-25zm0 35c-5.515625 0-10-4.484375-10-10s4.484375-10 10-10 10 4.484375 10 10-4.484375 10-10 10zm0 0"/><path d="m371 290.5c13.785156 0 25-11.214844 25-25s-11.214844-25-25-25-25 11.214844-25 25 11.214844 25 25 25zm0-35c5.515625 0 10 4.484375 10 10s-4.484375 10-10 10-10-4.484375-10-10 4.484375-10 10-10zm0 0"/></svg>