<?xml version="1.0" encoding="UTF-8" standalone="no"?>
<svg xmlns:dc="http://purl.org/dc/elements/1.1/" xmlns:cc="http://creativecommons.org/ns#" xmlns:rdf="http://www.w3.org/1999/02/22-rdf-syntax-ns#" xmlns:svg="http://www.w3.org/2000/svg" xmlns="http://www.w3.org/2000/svg" xmlns:sodipodi="http://sodipodi.sourceforge.net/DTD/sodipodi-0.dtd" xmlns:inkscape="http://www.inkscape.org/namespaces/inkscape" width="64px" height="64px" viewBox="0 0 64.000001 64.000001" id="svg2" version="1.1" inkscape:version="0.91 r13725" sodipodi:docname="edit gear setting settings config configuration manage.svg">
  <defs id="defs4">
    <pattern y="0" x="0" height="6" width="6" patternUnits="userSpaceOnUse" id="EMFhbasepattern"/>
  </defs>
  <sodipodi:namedview id="base" pagecolor="#ffffff" bordercolor="#666666" borderopacity="1.0" inkscape:pageopacity="0.0" inkscape:pageshadow="2" inkscape:zoom="11.2" inkscape:cx="12.538343" inkscape:cy="34.879605" inkscape:document-units="px" inkscape:current-layer="layer1" showgrid="true" units="px" inkscape:window-width="1366" inkscape:window-height="705" inkscape:window-x="-8" inkscape:window-y="-8" inkscape:window-maximized="1" inkscape:snap-bbox="true" inkscape:bbox-paths="true" inkscape:bbox-nodes="true" inkscape:snap-bbox-edge-midpoints="true" inkscape:snap-bbox-midpoints="true">
    <inkscape:grid type="xygrid" id="grid3368"/>
  </sodipodi:namedview>
  
  <g inkscape:label="Layer 1" inkscape:groupmode="layer" id="layer1" transform="translate(0,-988.36216)">
    <g id="g3388">
      <path inkscape:connector-curvature="0" id="path15661" d="m 10.173828,1034.3613 a 0.50005,0.50005 0 1 0 0,1 l 43.503906,0 a 0.50005,0.50005 0 1 0 0,-1 l -43.503906,0 z" style="color:#000000;font-style:normal;font-variant:normal;font-weight:normal;font-stretch:normal;font-size:medium;line-height:normal;font-family:sans-serif;text-indent:0;text-align:start;text-decoration:none;text-decoration-line:none;text-decoration-style:solid;text-decoration-color:#000000;letter-spacing:normal;word-spacing:normal;text-transform:none;direction:ltr;block-progression:tb;writing-mode:lr-tb;baseline-shift:baseline;text-anchor:start;white-space:normal;clip-rule:nonzero;display:inline;overflow:visible;visibility:visible;opacity:1;isolation:auto;mix-blend-mode:normal;color-interpolation:sRGB;color-interpolation-filters:linearRGB;solid-color:#000000;solid-opacity:1;fill:#2b4255;fill-opacity:1;fill-rule:nonzero;stroke:none;stroke-width:1px;stroke-linecap:round;stroke-linejoin:round;stroke-miterlimit:4;stroke-dasharray:none;stroke-dashoffset:0;stroke-opacity:1;color-rendering:auto;image-rendering:auto;shape-rendering:auto;text-rendering:auto;enable-background:accumulate"/>
      <path inkscape:connector-curvature="0" id="path15663" d="m 56.388672,1034.3613 a 0.50005,0.50005 0 1 0 0,1 l 2.064453,0 a 0.50005,0.50005 0 1 0 0,-1 l -2.064453,0 z" style="color:#000000;font-style:normal;font-variant:normal;font-weight:normal;font-stretch:normal;font-size:medium;line-height:normal;font-family:sans-serif;text-indent:0;text-align:start;text-decoration:none;text-decoration-line:none;text-decoration-style:solid;text-decoration-color:#000000;letter-spacing:normal;word-spacing:normal;text-transform:none;direction:ltr;block-progression:tb;writing-mode:lr-tb;baseline-shift:baseline;text-anchor:start;white-space:normal;clip-rule:nonzero;display:inline;overflow:visible;visibility:visible;opacity:1;isolation:auto;mix-blend-mode:normal;color-interpolation:sRGB;color-interpolation-filters:linearRGB;solid-color:#000000;solid-opacity:1;fill:#2b4255;fill-opacity:1;fill-rule:nonzero;stroke:none;stroke-width:1px;stroke-linecap:round;stroke-linejoin:round;stroke-miterlimit:4;stroke-dasharray:none;stroke-dashoffset:0;stroke-opacity:1;color-rendering:auto;image-rendering:auto;shape-rendering:auto;text-rendering:auto;enable-background:accumulate"/>
      <path inkscape:connector-curvature="0" id="path15665" d="m 2.5078125,1034.3613 a 0.50005,0.50005 0 1 0 0,1 l 5.703125,0 a 0.50005,0.50005 0 1 0 0,-1 l -5.703125,0 z" style="color:#000000;font-style:normal;font-variant:normal;font-weight:normal;font-stretch:normal;font-size:medium;line-height:normal;font-family:sans-serif;text-indent:0;text-align:start;text-decoration:none;text-decoration-line:none;text-decoration-style:solid;text-decoration-color:#000000;letter-spacing:normal;word-spacing:normal;text-transform:none;direction:ltr;block-progression:tb;writing-mode:lr-tb;baseline-shift:baseline;text-anchor:start;white-space:normal;clip-rule:nonzero;display:inline;overflow:visible;visibility:visible;opacity:1;isolation:auto;mix-blend-mode:normal;color-interpolation:sRGB;color-interpolation-filters:linearRGB;solid-color:#000000;solid-opacity:1;fill:#2b4255;fill-opacity:1;fill-rule:nonzero;stroke:none;stroke-width:1px;stroke-linecap:round;stroke-linejoin:round;stroke-miterlimit:4;stroke-dasharray:none;stroke-dashoffset:0;stroke-opacity:1;color-rendering:auto;image-rendering:auto;shape-rendering:auto;text-rendering:auto;enable-background:accumulate"/>
      <path inkscape:connector-curvature="0" id="path15667" d="m 23.507812,1036.3613 a 0.50005,0.50005 0 1 0 0,1 l 19.734376,0 a 0.50005,0.50005 0 1 0 0,-1 l -19.734376,0 z" style="color:#000000;font-style:normal;font-variant:normal;font-weight:normal;font-stretch:normal;font-size:medium;line-height:normal;font-family:sans-serif;text-indent:0;text-align:start;text-decoration:none;text-decoration-line:none;text-decoration-style:solid;text-decoration-color:#000000;letter-spacing:normal;word-spacing:normal;text-transform:none;direction:ltr;block-progression:tb;writing-mode:lr-tb;baseline-shift:baseline;text-anchor:start;white-space:normal;clip-rule:nonzero;display:inline;overflow:visible;visibility:visible;opacity:1;isolation:auto;mix-blend-mode:normal;color-interpolation:sRGB;color-interpolation-filters:linearRGB;solid-color:#000000;solid-opacity:1;fill:#f05542;fill-opacity:1;fill-rule:evenodd;stroke:none;stroke-width:1px;stroke-linecap:round;stroke-linejoin:round;stroke-miterlimit:4;stroke-dasharray:none;stroke-dashoffset:0;stroke-opacity:1;color-rendering:auto;image-rendering:auto;shape-rendering:auto;text-rendering:auto;enable-background:accumulate"/>
      <path inkscape:connector-curvature="0" id="path15669" d="m 25.507812,1038.3613 a 0.50005,0.50005 0 1 0 0,1 l 5.261719,0 a 0.50005,0.50005 0 1 0 0,-1 l -5.261719,0 z" style="color:#000000;font-style:normal;font-variant:normal;font-weight:normal;font-stretch:normal;font-size:medium;line-height:normal;font-family:sans-serif;text-indent:0;text-align:start;text-decoration:none;text-decoration-line:none;text-decoration-style:solid;text-decoration-color:#000000;letter-spacing:normal;word-spacing:normal;text-transform:none;direction:ltr;block-progression:tb;writing-mode:lr-tb;baseline-shift:baseline;text-anchor:start;white-space:normal;clip-rule:nonzero;display:inline;overflow:visible;visibility:visible;opacity:1;isolation:auto;mix-blend-mode:normal;color-interpolation:sRGB;color-interpolation-filters:linearRGB;solid-color:#000000;solid-opacity:1;fill:#f05542;fill-opacity:1;fill-rule:evenodd;stroke:none;stroke-width:1px;stroke-linecap:round;stroke-linejoin:round;stroke-miterlimit:4;stroke-dasharray:none;stroke-dashoffset:0;stroke-opacity:1;color-rendering:auto;image-rendering:auto;shape-rendering:auto;text-rendering:auto;enable-background:accumulate"/>
      <path inkscape:connector-curvature="0" id="path15671" d="m 33.498047,1038.3613 a 0.50005,0.50005 0 1 0 0,1 l 7.060547,0 a 0.50005,0.50005 0 1 0 0,-1 l -7.060547,0 z" style="color:#000000;font-style:normal;font-variant:normal;font-weight:normal;font-stretch:normal;font-size:medium;line-height:normal;font-family:sans-serif;text-indent:0;text-align:start;text-decoration:none;text-decoration-line:none;text-decoration-style:solid;text-decoration-color:#000000;letter-spacing:normal;word-spacing:normal;text-transform:none;direction:ltr;block-progression:tb;writing-mode:lr-tb;baseline-shift:baseline;text-anchor:start;white-space:normal;clip-rule:nonzero;display:inline;overflow:visible;visibility:visible;opacity:1;isolation:auto;mix-blend-mode:normal;color-interpolation:sRGB;color-interpolation-filters:linearRGB;solid-color:#000000;solid-opacity:1;fill:#f05542;fill-opacity:1;fill-rule:evenodd;stroke:none;stroke-width:1px;stroke-linecap:round;stroke-linejoin:round;stroke-miterlimit:4;stroke-dasharray:none;stroke-dashoffset:0;stroke-opacity:1;color-rendering:auto;image-rendering:auto;shape-rendering:auto;text-rendering:auto;enable-background:accumulate"/>
      <path inkscape:connector-curvature="0" id="path15673" d="m 28.507812,1040.3613 a 0.50005,0.50005 0 1 0 0,1 l 5.115235,0 a 0.50005,0.50005 0 1 0 0,-1 l -5.115235,0 z" style="color:#000000;font-style:normal;font-variant:normal;font-weight:normal;font-stretch:normal;font-size:medium;line-height:normal;font-family:sans-serif;text-indent:0;text-align:start;text-decoration:none;text-decoration-line:none;text-decoration-style:solid;text-decoration-color:#000000;letter-spacing:normal;word-spacing:normal;text-transform:none;direction:ltr;block-progression:tb;writing-mode:lr-tb;baseline-shift:baseline;text-anchor:start;white-space:normal;clip-rule:nonzero;display:inline;overflow:visible;visibility:visible;opacity:1;isolation:auto;mix-blend-mode:normal;color-interpolation:sRGB;color-interpolation-filters:linearRGB;solid-color:#000000;solid-opacity:1;fill:#f05542;fill-opacity:1;fill-rule:evenodd;stroke:none;stroke-width:1px;stroke-linecap:round;stroke-linejoin:round;stroke-miterlimit:4;stroke-dasharray:none;stroke-dashoffset:0;stroke-opacity:1;color-rendering:auto;image-rendering:auto;shape-rendering:auto;text-rendering:auto;enable-background:accumulate"/>
      <path style="color:#000000;font-style:normal;font-variant:normal;font-weight:normal;font-stretch:normal;font-size:medium;line-height:normal;font-family:sans-serif;text-indent:0;text-align:start;text-decoration:none;text-decoration-line:none;letter-spacing:normal;word-spacing:normal;text-transform:none;direction:ltr;block-progression:tb;writing-mode:lr-tb;baseline-shift:baseline;text-anchor:start;display:inline;overflow:visible;visibility:visible;fill:#2b4255;fill-opacity:1;fill-rule:evenodd;stroke:none;enable-background:accumulate" d="m 46.2365,1002.1071 c -0.1727,0 -0.3104,0.1448 -0.3077,0.3173 0,0.2167 -0.093,0.3151 -0.3076,0.3151 -0.4228,-0.01 -0.4228,0.6311 0,0.625 0.207,0 0.3076,0.057 0.3076,0.3016 -0.01,0.4227 0.6311,0.4227 0.6251,0 0,-0.2218 0.1038,-0.3016 0.3089,-0.3016 0.4227,0.01 0.4227,-0.6312 0,-0.625 -0.2787,0 -0.3089,-0.1595 -0.3089,-0.3151 0,-0.1764 -0.141,-0.3202 -0.3174,-0.3173 z" id="path15675" inkscape:connector-curvature="0" sodipodi:nodetypes="cccccccccc"/>
      <path style="color:#000000;font-style:normal;font-variant:normal;font-weight:normal;font-stretch:normal;font-size:medium;line-height:normal;font-family:sans-serif;text-indent:0;text-align:start;text-decoration:none;text-decoration-line:none;letter-spacing:normal;word-spacing:normal;text-transform:none;direction:ltr;block-progression:tb;writing-mode:lr-tb;baseline-shift:baseline;text-anchor:start;display:inline;overflow:visible;visibility:visible;fill:#f05542;fill-opacity:1;fill-rule:evenodd;stroke:none;enable-background:accumulate" d="m 12.5074,1023.8833 c -0.237,0 -0.426,0.1987 -0.4223,0.4356 0,0.2975 -0.1271,0.4323 -0.4222,0.4323 -0.5802,-0.01 -0.5802,0.8663 0,0.858 0.2842,0 0.4222,0.079 0.4222,0.4138 -0.01,0.5801 0.8661,0.5801 0.8579,0 0,-0.3043 0.1424,-0.4138 0.424,-0.4138 0.5801,0.01 0.5801,-0.8662 0,-0.858 -0.3825,0 -0.424,-0.2188 -0.424,-0.4323 0,-0.2421 -0.1935,-0.4394 -0.4356,-0.4356 z" id="path15677" inkscape:connector-curvature="0" sodipodi:nodetypes="cccccccccc"/>
      <path style="color:#000000;font-style:normal;font-variant:normal;font-weight:normal;font-stretch:normal;font-size:medium;line-height:normal;font-family:sans-serif;text-indent:0;text-align:start;text-decoration:none;text-decoration-line:none;letter-spacing:normal;word-spacing:normal;text-transform:none;direction:ltr;block-progression:tb;writing-mode:lr-tb;baseline-shift:baseline;text-anchor:start;display:inline;overflow:visible;visibility:visible;fill:#f05542;fill-opacity:1;fill-rule:evenodd;stroke:none;enable-background:accumulate" d="m 16.7925,1013.3325 c -0.1301,0 -0.2339,0.109 -0.2318,0.2392 0,0.1633 -0.07,0.2373 -0.2319,0.2373 -0.3185,-0.01 -0.3185,0.4756 0,0.471 0.1561,0 0.2319,0.043 0.2319,0.2273 -0.01,0.3184 0.4755,0.3184 0.471,0 0,-0.1671 0.078,-0.2273 0.2327,-0.2273 0.3185,0 0.3185,-0.4755 0,-0.471 -0.21,0 -0.2327,-0.1202 -0.2327,-0.2373 0,-0.133 -0.1063,-0.2413 -0.2392,-0.2392 z" id="path15679" inkscape:connector-curvature="0" sodipodi:nodetypes="cccccccccc"/>
      <path style="color:#000000;font-style:normal;font-variant:normal;font-weight:normal;font-stretch:normal;font-size:medium;line-height:normal;font-family:sans-serif;text-indent:0;text-align:start;text-decoration:none;text-decoration-line:none;letter-spacing:normal;word-spacing:normal;text-transform:none;direction:ltr;block-progression:tb;writing-mode:lr-tb;baseline-shift:baseline;text-anchor:start;display:inline;overflow:visible;visibility:visible;fill:#2b4255;fill-opacity:1;fill-rule:evenodd;stroke:none;enable-background:accumulate" d="m 18.6124,998.91115 c -0.1727,0 -0.3104,0.1448 -0.3077,0.3174 0,0.2167 -0.093,0.315 -0.3076,0.315 -0.4228,-0.01 -0.4228,0.63125 0,0.62515 0.207,0 0.3076,0.057 0.3076,0.3016 -0.01,0.4226 0.6311,0.4226 0.6251,0 0,-0.2218 0.1038,-0.3016 0.3089,-0.3016 0.4227,0.01 0.4227,-0.63115 0,-0.62515 -0.2787,0 -0.3089,-0.1594 -0.3089,-0.315 0,-0.1764 -0.141,-0.3201 -0.3174,-0.3174 z" id="path15681" inkscape:connector-curvature="0" sodipodi:nodetypes="cccccccccc"/>
      <path style="color:#000000;font-style:normal;font-variant:normal;font-weight:normal;font-stretch:normal;font-size:medium;line-height:normal;font-family:sans-serif;text-indent:0;text-align:start;text-decoration:none;text-decoration-line:none;letter-spacing:normal;word-spacing:normal;text-transform:none;direction:ltr;block-progression:tb;writing-mode:lr-tb;baseline-shift:baseline;text-anchor:start;display:inline;overflow:visible;visibility:visible;fill:#2b4255;fill-opacity:1;fill-rule:evenodd;stroke:none;enable-background:accumulate" d="m 37.1994,999.89275 c -0.1301,0 -0.2339,0.10905 -0.2319,0.23905 0,0.1633 -0.07,0.2374 -0.2318,0.2374 -0.3185,0 -0.3185,0.4755 0,0.471 0.156,0 0.2318,0.043 0.2318,0.2272 -0.01,0.3186 0.4755,0.3186 0.471,0 0,-0.167 0.078,-0.2272 0.2328,-0.2272 0.3185,0.01 0.3185,-0.4756 0,-0.471 -0.21,0 -0.2328,-0.1202 -0.2328,-0.2374 0,-0.13285 -0.1062,-0.24115 -0.2391,-0.23905 z" id="path15683" inkscape:connector-curvature="0" sodipodi:nodetypes="cccccccccc"/>
      <path style="color:#000000;font-style:normal;font-variant:normal;font-weight:normal;font-stretch:normal;font-size:medium;line-height:normal;font-family:sans-serif;text-indent:0;text-align:start;text-decoration:none;text-decoration-line:none;letter-spacing:normal;word-spacing:normal;text-transform:none;direction:ltr;block-progression:tb;writing-mode:lr-tb;baseline-shift:baseline;text-anchor:start;display:inline;overflow:visible;visibility:visible;fill:#f05542;fill-opacity:1;fill-rule:evenodd;stroke:none;enable-background:accumulate" d="m 47.9511,1008.1098 c -0.1726,0 -0.3104,0.1448 -0.3077,0.3173 0,0.2167 -0.093,0.3151 -0.3076,0.3151 -0.4227,-0.01 -0.4227,0.6311 0,0.6251 0.2071,0 0.3076,0.057 0.3076,0.3015 -0.01,0.4227 0.6311,0.4227 0.6251,0 0,-0.2218 0.1038,-0.3015 0.3089,-0.3015 0.4227,0.01 0.4227,-0.6313 0,-0.6251 -0.2787,0 -0.3089,-0.1595 -0.3089,-0.3151 0,-0.1764 -0.1409,-0.3202 -0.3174,-0.3173 z" id="path15685" inkscape:connector-curvature="0" sodipodi:nodetypes="cccccccccc"/>
      <path style="color:#000000;font-style:normal;font-variant:normal;font-weight:normal;font-stretch:normal;font-size:medium;line-height:normal;font-family:sans-serif;text-indent:0;text-align:start;text-decoration:none;text-decoration-line:none;letter-spacing:normal;word-spacing:normal;text-transform:none;direction:ltr;block-progression:tb;writing-mode:lr-tb;baseline-shift:baseline;text-anchor:start;display:inline;overflow:visible;visibility:visible;fill:#f05542;fill-opacity:1;fill-rule:evenodd;stroke:none;enable-background:accumulate" d="m 49.3858,1018.5471 c -0.13,0 -0.2338,0.1092 -0.2318,0.2392 0,0.1633 -0.07,0.2374 -0.2318,0.2374 -0.3185,-0.01 -0.3185,0.4755 0,0.471 0.156,0 0.2318,0.043 0.2318,0.2272 -0.01,0.3185 0.4755,0.3185 0.471,0 0,-0.1671 0.078,-0.2272 0.2327,-0.2272 0.3186,0 0.3186,-0.4756 0,-0.471 -0.2099,0 -0.2327,-0.1202 -0.2327,-0.2374 0,-0.1329 -0.1062,-0.2412 -0.2392,-0.2392 z" id="path15687" inkscape:connector-curvature="0" sodipodi:nodetypes="cccccccccc"/>
      <path style="color:#000000;font-style:normal;font-variant:normal;font-weight:normal;font-stretch:normal;font-size:medium;line-height:normal;font-family:sans-serif;text-indent:0;text-align:start;text-decoration:none;text-decoration-line:none;letter-spacing:normal;word-spacing:normal;text-transform:none;direction:ltr;block-progression:tb;writing-mode:lr-tb;baseline-shift:baseline;text-anchor:start;display:inline;overflow:visible;visibility:visible;fill:#f05542;fill-opacity:1;fill-rule:evenodd;stroke:none;enable-background:accumulate" d="m 48.6758,1024.8939 c -0.237,0 -0.426,0.1988 -0.4223,0.4357 0,0.2974 -0.1271,0.4323 -0.4223,0.4323 -0.5801,-0.01 -0.5801,0.8662 0,0.8579 0.2842,0 0.4223,0.079 0.4223,0.4139 -0.01,0.5801 0.8661,0.5801 0.8579,0 0,-0.3044 0.1424,-0.4139 0.4239,-0.4139 0.5802,0.01 0.5802,-0.8662 0,-0.8579 -0.3825,0 -0.4239,-0.2188 -0.4239,-0.4323 0,-0.2422 -0.1935,-0.4395 -0.4356,-0.4357 z" id="path15689" inkscape:connector-curvature="0" sodipodi:nodetypes="cccccccccc"/>
      <path style="color:#000000;font-style:normal;font-variant:normal;font-weight:normal;font-stretch:normal;font-size:medium;line-height:normal;font-family:sans-serif;text-indent:0;text-align:start;text-decoration:none;text-decoration-line:none;letter-spacing:normal;word-spacing:normal;text-transform:none;direction:ltr;block-progression:tb;writing-mode:lr-tb;baseline-shift:baseline;text-anchor:start;display:inline;overflow:visible;visibility:visible;fill:#2b4255;fill-opacity:1;fill-rule:evenodd;stroke:none;enable-background:accumulate" d="m 16.0138,1005.5387 c -0.1727,0 -0.3104,0.1448 -0.3077,0.3174 0,0.2167 -0.093,0.315 -0.3077,0.315 -0.4227,-0.01 -0.4227,0.6311 0,0.6251 0.2071,0 0.3077,0.057 0.3077,0.3016 -0.01,0.4226 0.6311,0.4226 0.6251,0 0,-0.2218 0.1038,-0.3016 0.3089,-0.3016 0.4227,0.01 0.4227,-0.6311 0,-0.6251 -0.2787,0 -0.3089,-0.1594 -0.3089,-0.315 0,-0.1764 -0.141,-0.3202 -0.3174,-0.3174 z" id="path15691" inkscape:connector-curvature="0" sodipodi:nodetypes="cccccccccc"/>
      <path style="color:#000000;font-style:normal;font-variant:normal;font-weight:normal;font-stretch:normal;font-size:medium;line-height:normal;font-family:sans-serif;text-indent:0;text-align:start;text-decoration:none;text-decoration-line:none;letter-spacing:normal;word-spacing:normal;text-transform:none;direction:ltr;block-progression:tb;writing-mode:lr-tb;baseline-shift:baseline;text-anchor:start;display:inline;overflow:visible;visibility:visible;fill:#f05542;fill-opacity:1;fill-rule:evenodd;stroke:none;enable-background:accumulate" d="m 25.1897,1000.7122 c -0.1334,0 -0.2399,0.1119 -0.2378,0.2453 0,0.1675 -0.072,0.2434 -0.2378,0.2434 -0.3267,0 -0.3267,0.4878 0,0.4831 0.16,0 0.2378,0.044 0.2378,0.2331 0,0.3267 0.4877,0.3267 0.4831,0 0,-0.1714 0.08,-0.2331 0.2387,-0.2331 0.3267,0 0.3267,-0.4877 0,-0.4831 -0.2154,0 -0.2387,-0.1232 -0.2387,-0.2434 0.001,-0.1364 -0.109,-0.2475 -0.2453,-0.2453 z" id="path15693" inkscape:connector-curvature="0" sodipodi:nodetypes="cccccccccc"/>
      <path inkscape:connector-curvature="0" id="path15953" d="m 18.416016,1017.6562 a 0.50005,0.50005 0 0 0 -0.136719,0.018 l -2.173828,0.5821 a 0.50005,0.50005 0 0 0 -0.351563,0.6191 l -0.01367,-0.043 0.06836,1.0293 c -0.243882,0.1557 -0.476468,0.3293 -0.697266,0.5215 l -1.017578,-0.3516 a 0.50005,0.50005 0 1 0 -0.328125,0.9434 l 1.263672,0.4395 a 0.50005,0.50005 0 0 0 0.517578,-0.1192 c 0.28974,-0.2903 0.644402,-0.5457 1.029297,-0.7676 a 0.50005,0.50005 0 0 0 0.248047,-0.4668 l -0.0625,-0.9453 1.378906,-0.3691 0.417969,0.8496 a 0.50005,0.50005 0 0 0 0.449218,0.2793 c 0.44397,-6e-4 0.877359,0.044 1.273438,0.1504 a 0.50005,0.50005 0 0 0 0.507812,-0.1563 l 0.603516,-0.6972 1.242188,0.7265 -0.304688,0.8555 a 0.50005,0.50005 0 0 0 0.119141,0.5234 c 0.300384,0.2972 0.565929,0.6519 0.789062,1.0391 a 0.50005,0.50005 0 0 0 0.472657,0.25 l 0.933593,-0.076 0.15625,0.5762 a 0.50005,0.50005 0 1 0 0.964844,-0.2578 l -0.261719,-0.9805 a 0.50005,0.50005 0 0 0 -0.523437,-0.3691 l -1.083985,0.088 c -0.161226,-0.2491 -0.340066,-0.4848 -0.537109,-0.7071 l 0.355469,-0.996 a 0.50005,0.50005 0 0 0 -0.21875,-0.5977 l -1.957032,-1.1465 a 0.50005,0.50005 0 0 0 -0.630859,0.1055 l -0.705078,0.8144 c -0.287439,-0.056 -0.575975,-0.091 -0.865234,-0.1035 l -0.480469,-0.9805 a 0.50005,0.50005 0 0 0 -0.441406,-0.2793 z m -5.011719,3.2793 a 0.50005,0.50005 0 0 0 -0.441406,0.2559 l -0.125,0.2148 a 0.50005,0.50005 0 0 0 0.03906,0.5684 0.50005,0.50005 0 0 0 -0.392578,0.8809 l 0.804687,0.6836 c -0.05969,0.2918 -0.09831,0.5855 -0.113281,0.8828 l -0.980469,0.4648 a 0.50005,0.50005 0 0 0 -0.267578,0.5801 l 0.587891,2.1934 a 0.50005,0.50005 0 0 0 0.523437,0.3691 l 1.082032,-0.088 c 0.161604,0.2497 0.341474,0.4863 0.539062,0.709 l -0.353515,1.0156 a 0.50005,0.50005 0 0 0 0.222656,0.5977 l 1.953125,1.1269 a 0.50005,0.50005 0 0 0 0.634766,-0.1133 l 0.675781,-0.8144 c 0.2904,0.063 0.587212,0.1022 0.890625,0.1211 l 0.478515,0.9687 a 0.50005,0.50005 0 0 0 0.572266,0.2637 l 2.179687,-0.5644 a 0.50005,0.50005 0 0 0 0.373047,-0.5176 l -0.07227,-1.0977 c 0.251931,-0.1672 0.486428,-0.3502 0.705078,-0.5488 l 0.996094,0.3672 a 0.50005,0.50005 0 0 0 0.605468,-0.2188 l 1.126954,-1.9531 a 0.50005,0.50005 0 0 0 -0.105469,-0.6289 l -0.810547,-0.7012 c 0.06038,-0.2869 0.09907,-0.5776 0.115234,-0.873 l 0.347656,-0.1699 0.316407,-0.1563 0.316406,-0.1543 a 0.50005,0.50005 0 0 0 0.263672,-0.5781 l -0.04102,-0.1504 a 0.50005,0.50005 0 0 0 -0.974609,0.2207 l -0.05664,-0.209 -0.265625,0.1309 -0.583984,0.2871 a 0.50005,0.50005 0 0 0 -0.279297,0.4492 c 5.31e-4,0.4433 -0.0547,0.8615 -0.167969,1.2754 a 0.50005,0.50005 0 0 0 0.154297,0.5098 l 0.699219,0.6054 -0.710938,1.2305 -0.853515,-0.3164 a 0.50005,0.50005 0 0 0 -0.529297,0.1172 c -0.305359,0.3087 -0.657336,0.5906 -1.033203,0.8066 a 0.50005,0.50005 0 0 0 -0.25,0.4668 l 0.0625,0.9414 -1.384766,0.3594 -0.412109,-0.8359 a 0.50005,0.50005 0 0 0 -0.449219,-0.2793 c -0.434356,4e-4 -0.880257,-0.065 -1.298828,-0.1797 a 0.50005,0.50005 0 0 0 -0.517578,0.1621 l -0.582031,0.7012 -1.230469,-0.711 0.302734,-0.873 a 0.50005,0.50005 0 0 0 -0.119141,-0.5196 c -0.30044,-0.2972 -0.566224,-0.6521 -0.789062,-1.039 a 0.50005,0.50005 0 0 0 -0.474609,-0.2481 l -0.933594,0.074 -0.371094,-1.3867 0.845703,-0.4023 a 0.50005,0.50005 0 0 0 0.285156,-0.4512 c -4.82e-4,-0.4468 0.05255,-0.8873 0.164063,-1.2949 a 0.50005,0.50005 0 0 0 -0.158203,-0.5137 l -0.925781,-0.789 a 0.50005,0.50005 0 0 0 0.490234,-0.252 l 0.125,-0.2148 a 0.50005,0.50005 0 0 0 -0.423828,-0.7579 z m 4.962891,1.4141 a 0.50054473,0.50054473 0 1 0 0.259765,0.9668 c 0.796944,-0.2136 1.608657,0.2539 1.822266,1.0508 0.213608,0.7969 -0.255835,1.6106 -1.052735,1.8242 -0.796942,0.2136 -1.608657,-0.2558 -1.822265,-1.0527 a 0.50053485,0.50053485 0 1 0 -0.966797,0.2597 c 0.354053,1.3209 1.727969,2.1119 3.048828,1.7578 1.320905,-0.354 2.113819,-1.7259 1.759766,-3.0468 -0.354054,-1.3209 -1.727968,-2.1138 -3.048828,-1.7598 z m -1.015626,0.791 a 0.50005,0.50005 0 0 0 -0.40625,0.2285 c -0.100845,0.1507 -0.185812,0.3114 -0.251953,0.4805 a 0.50033139,0.50033139 0 1 0 0.931641,0.3652 c 0.03968,-0.1014 0.09172,-0.1985 0.152344,-0.289 a 0.50005,0.50005 0 0 0 -0.425782,-0.7852 z" style="color:#000000;font-style:normal;font-variant:normal;font-weight:normal;font-stretch:normal;font-size:medium;line-height:normal;font-family:sans-serif;text-indent:0;text-align:start;text-decoration:none;text-decoration-line:none;text-decoration-style:solid;text-decoration-color:#000000;letter-spacing:normal;word-spacing:normal;text-transform:none;direction:ltr;block-progression:tb;writing-mode:lr-tb;baseline-shift:baseline;text-anchor:start;white-space:normal;clip-rule:nonzero;display:inline;overflow:visible;visibility:visible;opacity:1;isolation:auto;mix-blend-mode:normal;color-interpolation:sRGB;color-interpolation-filters:linearRGB;solid-color:#000000;solid-opacity:1;fill:#2b4255;fill-opacity:1;fill-rule:nonzero;stroke:none;stroke-width:1;stroke-linecap:round;stroke-linejoin:round;stroke-miterlimit:4;stroke-dasharray:none;stroke-dashoffset:0;stroke-opacity:1;color-rendering:auto;image-rendering:auto;shape-rendering:auto;text-rendering:auto;enable-background:accumulate"/>
      <path inkscape:connector-curvature="0" id="path15919" d="m 37.259766,1009.2598 a 0.50005,0.50005 0 0 0 -0.482422,0.4101 l 0.0078,-0.049 -0.716797,1.8086 c -0.601622,0.064 -1.197018,0.1811 -1.777343,0.3594 l -1.400391,-1.3829 a 0.50005,0.50005 0 1 0 -0.701172,0.7129 l 1.585938,1.5625 a 0.50005,0.50005 0 0 0 0.519531,0.1153 c 0.678753,-0.242 1.421622,-0.3752 2.18164,-0.4356 a 0.50005,0.50005 0 0 0 0.423829,-0.3144 l 0.683593,-1.7227 2.876954,0.5313 0.02344,1.8496 a 0.50005,0.50005 0 0 0 0.287109,0.4453 c 0.688246,0.3262 1.332653,0.7176 1.88086,1.1855 a 0.50005,0.50005 0 0 0 0.527344,0.078 l 1.658203,-0.7286 1.658203,2.4375 -1.263672,1.2637 a 0.50005,0.50005 0 0 0 -0.117188,0.5235 c 0.250995,0.6944 0.400295,1.4489 0.460938,2.2168 a 0.50005,0.50005 0 0 0 0.320312,0.4277 l 1.71875,0.6523 -0.230468,1.252 a 0.50049293,0.50049293 0 1 0 0.984375,0.1816 l 0.30664,-1.6621 a 0.50005,0.50005 0 0 0 -0.314453,-0.5566 l -1.855469,-0.7071 c -0.06822,-0.6155 -0.193603,-1.2212 -0.378906,-1.8086 l 1.369141,-1.3671 a 0.50005,0.50005 0 0 0 0.06055,-0.6348 l -2.125,-3.125 a 0.50005,0.50005 0 0 0 -0.615235,-0.1758 l -1.802734,0.791 c -0.478576,-0.373 -0.993664,-0.6945 -1.533203,-0.9687 l -0.02344,-1.9942 a 0.50005,0.50005 0 0 0 -0.410156,-0.4843 l -3.6875,-0.6797 a 0.50005,0.50005 0 0 0 -0.09961,-0.01 z m -6.212891,2.0293 a 0.50005,0.50005 0 0 0 -0.267578,0.092 l -0.341797,0.2343 a 0.50007156,0.50007156 0 1 0 0.566406,0.8243 l 0.341797,-0.2344 a 0.50005,0.50005 0 0 0 -0.298828,-0.916 z m -1.626953,1.1328 a 0.50005,0.50005 0 0 0 -0.435547,0.7109 l 0.792969,1.7695 c -0.381776,0.4823 -0.713411,1.0025 -0.996094,1.5528 l -1.988281,0 a 0.50005,0.50005 0 0 0 -0.492188,0.4101 l -0.683593,3.7188 a 0.50005,0.50005 0 0 0 0.3125,0.5566 l 1.859374,0.7071 c 0.06818,0.615 0.191768,1.2218 0.376954,1.8085 l -1.378907,1.4004 a 0.50005,0.50005 0 0 0 -0.05664,0.6348 l 2.132812,3.0938 a 0.50005,0.50005 0 0 0 0.621094,0.1699 L 31.25,1028.1387 c 0.477879,0.3849 0.997678,0.7296 1.554688,1.0215 l 0.03125,1.9726 a 0.50005,0.50005 0 0 0 0.404296,0.4824 l 3.681641,0.709 a 0.50005,0.50005 0 0 0 0.560547,-0.3066 l 0.736328,-1.8594 c 0.624401,-0.074 1.233001,-0.2129 1.816406,-0.4023 l 1.359375,1.3925 a 0.50005,0.50005 0 0 0 0.640625,0.062 l 3.09375,-2.1308 a 0.50005,0.50005 0 0 0 0.173828,-0.6133 l -0.789062,-1.7988 c 0.378825,-0.4745 0.709356,-0.9845 0.992187,-1.5313 l 0.822266,-0.01 a 0.50005,0.50005 0 0 0 0.002,0 l 0.589844,-0.01 0.58789,-0.01 a 0.50005,0.50005 0 0 0 0.482422,-0.4101 l 0.04687,-0.2539 a 0.50032145,0.50032145 0 1 0 -0.984375,-0.1797 l 0.02734,-0.1485 -0.177734,0 -0.587891,0.01 -1.083984,0.014 a 0.50005,0.50005 0 0 0 -0.445313,0.2871 c -0.328537,0.6928 -0.728573,1.3106 -1.214844,1.875 a 0.50005,0.50005 0 0 0 -0.07812,0.5274 l 0.728515,1.6601 -2.40625,1.6582 -1.255859,-1.2871 a 0.50005,0.50005 0 0 0 -0.527344,-0.1211 c -0.705353,0.255 -1.465968,0.4332 -2.220703,0.4922 a 0.50005,0.50005 0 0 0 -0.425781,0.3145 l -0.679688,1.7187 -2.876953,-0.5547 -0.02734,-1.8242 a 0.50005,0.50005 0 0 0 -0.285156,-0.4453 c -0.684609,-0.3247 -1.332213,-0.7607 -1.900391,-1.25 a 0.50005,0.50005 0 0 0 -0.537109,-0.076 l -1.630859,0.7559 -1.658204,-2.4063 1.273438,-1.2929 a 0.50005,0.50005 0 0 0 0.113281,-0.5196 c -0.251042,-0.6944 -0.40058,-1.4493 -0.460937,-2.2168 a 0.50005,0.50005 0 0 0 -0.320313,-0.4277 l -1.71875,-0.6523 0.533203,-2.9004 1.839844,0 A 0.50005,0.50005 0 0 0 29.5,1017.1699 c 0.330081,-0.6958 0.738738,-1.3467 1.220703,-1.9062 a 0.50005,0.50005 0 0 0 0.07813,-0.5313 l -0.902344,-2.0078 a 0.50005,0.50005 0 0 0 -0.476562,-0.3027 z m 8.314453,4.6133 a 0.50005,0.50005 0 0 0 -0.08203,0.9921 c 1.529454,0.2817 2.537514,1.7461 2.255859,3.2754 -0.281662,1.5295 -1.745941,2.5395 -3.275391,2.2578 -1.529434,-0.2815 -2.53752,-1.7459 -2.255859,-3.2753 a 0.50050201,0.50050201 0 1 0 -0.984375,-0.1817 c -0.379905,2.063 0.99759,4.0597 3.060547,4.4395 2.062943,0.3799 4.059547,-0.9957 4.439453,-3.0586 0.379911,-2.0629 -0.995656,-4.0596 -3.058594,-4.4395 a 0.50005,0.50005 0 0 0 -0.09961,-0.01 z m -2.267578,0.4082 a 0.50005,0.50005 0 0 0 -0.271485,0.074 c -0.238974,0.1421 -0.461179,0.3094 -0.664062,0.5 a 0.50019619,0.50019619 0 1 0 0.683594,0.7304 c 0.149967,-0.1408 0.315748,-0.2661 0.492187,-0.371 a 0.50005,0.50005 0 0 0 -0.240234,-0.9336 z" style="color:#000000;font-style:normal;font-variant:normal;font-weight:normal;font-stretch:normal;font-size:medium;line-height:normal;font-family:sans-serif;text-indent:0;text-align:start;text-decoration:none;text-decoration-line:none;text-decoration-style:solid;text-decoration-color:#000000;letter-spacing:normal;word-spacing:normal;text-transform:none;direction:ltr;block-progression:tb;writing-mode:lr-tb;baseline-shift:baseline;text-anchor:start;white-space:normal;clip-rule:nonzero;display:inline;overflow:visible;visibility:visible;opacity:1;isolation:auto;mix-blend-mode:normal;color-interpolation:sRGB;color-interpolation-filters:linearRGB;solid-color:#000000;solid-opacity:1;fill:#2b4255;fill-opacity:1;fill-rule:nonzero;stroke:none;stroke-width:1;stroke-linecap:round;stroke-linejoin:round;stroke-miterlimit:4;stroke-dasharray:none;stroke-dashoffset:0;stroke-opacity:1;color-rendering:auto;image-rendering:auto;shape-rendering:auto;text-rendering:auto;enable-background:accumulate"/>
    </g>
  </g>

	
	
	<metadata>
		<rdf:RDF xmlns:rdf="http://www.w3.org/1999/02/22-rdf-syntax-ns#" xmlns:rdfs="http://www.w3.org/2000/01/rdf-schema#" xmlns:dc="http://purl.org/dc/elements/1.1/">
			<rdf:Description about="https://iconscout.com/legal#licenses" dc:title="Edit, Gear, Setting, Settings, Config, Configuration, Manage" dc:description="Edit, Gear, Setting, Settings, Config, Configuration, Manage" dc:publisher="Iconscout" dc:date="2016-12-14" dc:format="image/svg+xml" dc:language="en">
				<dc:creator>
					<rdf:Bag>
						<rdf:li>Dalpat Prajapati</rdf:li>
					</rdf:Bag>
				</dc:creator>
			</rdf:Description>
		</rdf:RDF>
    </metadata></svg>
